<svg width="39" height="34" viewBox="0 0 39 34" fill="none" xmlns="http://www.w3.org/2000/svg">
<g clip-path="url(#clip0_4_69)">
<path d="M32.1578 25.1214C32.1578 19.4274 32.1578 13.8061 32.1578 8.13784C31.8337 8.13784 31.5329 8.14454 31.2331 8.13672C30.4832 8.11662 29.9091 7.546 29.9002 6.82016C29.8914 6.11666 30.4367 5.50472 31.1645 5.47569C31.9643 5.4433 32.7662 5.44665 33.5659 5.47569C34.2307 5.50025 34.7218 5.99047 34.8148 6.65713C34.8391 6.8358 34.8336 7.01893 34.8336 7.19872C34.8347 12.9809 34.8347 18.7619 34.8347 24.544C34.8347 24.7216 34.8347 24.898 34.8347 25.1214C35.4972 25.1214 36.1145 25.1214 36.7317 25.1214C37.8666 25.1225 38.3544 25.606 38.3544 26.7361C38.3544 27.5993 38.371 28.4647 38.3411 29.3268C38.2692 31.3937 36.6122 33.052 34.5615 33.138C34.4232 33.1436 34.286 33.1469 34.1478 33.1469C24.2922 33.1469 14.4376 33.1436 4.58202 33.1503C2.84429 33.1514 1.53021 32.43 0.776933 30.8443C0.52916 30.324 0.437352 29.6997 0.394213 29.1146C0.331163 28.2693 0.37209 27.4161 0.378727 26.5663C0.38647 25.6685 0.906351 25.1381 1.79457 25.1247C2.48037 25.1135 3.16617 25.1225 3.89733 25.1225C3.89733 24.898 3.89733 24.7205 3.89733 24.544C3.89733 18.7485 3.89733 12.9529 3.89733 7.1574C3.89733 5.93799 4.36743 5.46564 5.57643 5.46452C6.1837 5.46452 6.79096 5.45894 7.39823 5.46564C8.22782 5.47569 8.83951 6.05859 8.83066 6.82016C8.82182 7.57504 8.22893 8.12779 7.41371 8.13896C7.1416 8.14231 6.86839 8.13896 6.57195 8.13896C6.57195 13.8072 6.57195 19.4286 6.57195 25.0979C6.73455 25.1057 6.89383 25.1202 7.05311 25.1202C9.30298 25.1214 11.5529 25.1202 13.8027 25.1214C14.8027 25.1225 15.1987 25.4798 15.4077 26.4826C15.442 26.649 15.671 26.7863 15.8325 26.9058C15.8955 26.9527 16.0205 26.9181 16.1167 26.9181C18.2837 26.9181 20.4506 26.9192 22.6175 26.9181C23.2026 26.9181 23.2568 26.869 23.353 26.2738C23.4681 25.5647 24.0101 25.1247 24.8054 25.1225C27.0829 25.1169 29.3604 25.1202 31.638 25.1202C31.8006 25.1214 31.9643 25.1214 32.1578 25.1214ZM3.05335 27.8159C3.05335 28.3731 3.01132 28.9035 3.06552 29.4228C3.12193 29.9622 3.62964 30.3932 4.17054 30.4557C4.32097 30.4736 4.47362 30.4714 4.62516 30.4714C14.452 30.4725 24.2789 30.4725 34.1057 30.4714C34.2573 30.4714 34.4099 30.4725 34.5604 30.4557C35.1013 30.3932 35.609 29.9622 35.6654 29.4228C35.7196 28.9035 35.6775 28.3731 35.6775 27.8304C35.5824 27.8181 35.5028 27.7992 35.4231 27.7992C32.2762 27.798 29.1293 27.7947 25.9823 27.8081C25.8429 27.8092 25.6516 27.9309 25.573 28.0538C24.9403 29.0454 24.0466 29.5791 22.8852 29.5881C20.539 29.607 18.1929 29.6059 15.8468 29.5881C14.7197 29.5802 13.8204 29.0844 13.2187 28.1129C13.0638 27.8617 12.9001 27.7902 12.6247 27.7913C9.57509 27.8003 6.52438 27.7969 3.47368 27.7969C3.33984 27.798 3.20489 27.8092 3.05335 27.8159Z" fill="white"/>
<path d="M19.3788 18.8717C14.2773 18.8884 10.0995 14.6886 10.0884 9.5329C10.0784 4.36605 14.1966 0.186337 19.3312 0.150604C24.4316 0.115987 28.6227 4.30687 28.6415 9.46479C28.6614 14.6473 24.519 18.8549 19.3788 18.8717ZM19.3467 16.1961C22.9803 16.214 25.9735 13.2246 25.9912 9.55859C26.0089 5.85234 23.0799 2.85742 19.4042 2.82616C15.7673 2.79489 12.763 5.77529 12.7398 9.43799C12.7154 13.1632 15.6622 16.1782 19.3467 16.1961Z" fill="white"/>
<path d="M19.3567 20.6705C19.9352 20.6705 20.5148 20.6638 21.0933 20.6716C21.8731 20.6828 22.4439 21.2478 22.4483 21.9982C22.4527 22.7531 21.8875 23.3337 21.111 23.3416C19.954 23.3527 18.7959 23.3516 17.6377 23.3416C16.8557 23.3349 16.2872 22.7665 16.2838 22.0138C16.2805 21.2556 16.8402 20.685 17.62 20.6705C18.1985 20.6615 18.7771 20.6705 19.3567 20.6705Z" fill="white"/>
<path d="M17.6068 9.4789C17.6068 8.97863 17.5946 8.47724 17.6101 7.97809C17.63 7.336 18.1576 6.99541 18.7328 7.27235C19.7505 7.76257 20.7548 8.28294 21.7636 8.79103C22.0612 8.94066 22.2348 9.18521 22.2304 9.5191C22.226 9.85299 22.0457 10.0886 21.7481 10.2382C20.7504 10.7385 19.7604 11.2544 18.7549 11.7413C18.1565 12.0305 17.6344 11.6899 17.6057 11.0244C17.6046 10.9965 17.6046 10.9685 17.6046 10.9406C17.6046 10.4538 17.6046 9.968 17.6046 9.48113C17.6068 9.4789 17.6068 9.4789 17.6068 9.4789Z" fill="white"/>
</g>
<defs>
<clipPath id="clip0_4_69">
<rect width="38" height="33" fill="white" transform="translate(0.358887 0.150391)"/>
</clipPath>
</defs>
</svg>
