<svg width="43" height="43" viewBox="0 0 43 43" fill="none" xmlns="http://www.w3.org/2000/svg">
<g clip-path="url(#clip0_4_63)">
<path d="M17.5418 0.459779C17.5418 1.75534 17.5418 2.98083 17.5418 4.26808C17.3552 4.26808 17.184 4.26808 17.0117 4.26808C13.422 4.26808 9.83108 4.26689 6.24137 4.26927C4.93268 4.26927 4.15292 5.03758 4.15174 6.33076C4.14936 11.8241 4.15055 17.3175 4.15055 22.8096C4.15055 22.9415 4.15055 23.0721 4.15055 23.255C8.57944 23.255 12.9762 23.255 17.4039 23.255C17.4039 24.5446 17.4039 25.7819 17.4039 27.0633C13 27.0633 8.60083 27.0633 4.18026 27.0633C4.18026 27.8423 4.11608 28.5856 4.1969 29.3124C4.29081 30.1591 4.98854 30.7492 5.85982 30.8597C6.06427 30.8858 6.27466 30.8799 6.48148 30.8799C15.0266 30.8811 23.5718 30.8811 32.1158 30.8811C33.6717 30.8811 34.1864 30.4916 34.581 28.9917C35.8125 28.9917 37.051 28.9917 38.3276 28.9917C38.3098 30.4227 37.8486 31.6589 36.925 32.7086C35.7614 34.0315 34.2862 34.6727 32.5211 34.6692C28.9611 34.662 25.3999 34.6668 21.84 34.6668C21.664 34.6668 21.4881 34.6668 21.2753 34.6668C21.2753 35.9327 21.2753 37.1712 21.2753 38.4573C23.1332 38.4573 25.0077 38.4573 26.9083 38.4573C26.9083 39.7445 26.9083 40.9843 26.9083 42.2525C21.8685 42.2525 16.8334 42.2525 11.7674 42.2525C11.7674 40.9973 11.7674 39.76 11.7674 38.4822C13.6454 38.4822 15.508 38.4822 17.4016 38.4822C17.4016 37.2045 17.4016 35.9659 17.4016 34.6656C17.2221 34.6656 17.0485 34.6656 16.8762 34.6656C13.2865 34.6656 9.69557 34.6751 6.10587 34.662C3.27927 34.6514 1.01847 32.8012 0.460996 30.0557C0.376602 29.6377 0.346886 29.2007 0.346886 28.7732C0.34332 21.3063 0.342131 13.8393 0.346886 6.37113C0.349263 2.94402 2.82164 0.465716 6.23543 0.460966C9.84059 0.456216 13.4457 0.459779 17.0497 0.459779C17.1971 0.459779 17.3433 0.459779 17.5418 0.459779Z" fill="white"/>
<path d="M19.3512 13.7392C19.3512 11.2752 19.3464 8.81112 19.3524 6.34707C19.3595 2.91639 21.8152 0.464215 25.2492 0.460652C28.9126 0.45709 32.576 0.455902 36.2394 0.460652C39.6556 0.465402 42.1315 2.94014 42.1363 6.36251C42.1422 11.3049 42.1422 16.2484 42.1363 21.1908C42.1315 24.5858 39.6485 27.0701 36.2691 27.0724C32.5606 27.0748 28.8532 27.0772 25.1446 27.0713C22.2336 27.0665 19.936 25.1463 19.4225 22.2845C19.3547 21.908 19.3535 21.5161 19.3524 21.1314C19.3476 18.6673 19.3512 16.2033 19.3512 13.7392ZM38.3326 13.7547C38.3326 11.3061 38.3338 8.85625 38.3326 6.40763C38.3314 5.01945 37.5778 4.26895 36.1847 4.26895C32.5511 4.26776 28.9174 4.26776 25.2825 4.26895C23.8954 4.26895 23.1346 5.02539 23.1346 6.41357C23.1322 11.312 23.1322 16.2104 23.1346 21.1088C23.1346 22.5113 23.8787 23.2641 25.2659 23.2641C28.915 23.2665 32.5629 23.2665 36.2121 23.2641C37.5826 23.263 38.3314 22.5125 38.3326 21.1468C38.3338 18.6828 38.3326 16.2187 38.3326 13.7547Z" fill="white"/>
<path d="M26.9573 19.4544C26.9573 18.1933 26.9573 16.9654 26.9573 15.7031C29.4665 15.7031 31.9757 15.7031 34.4981 15.7031C34.4981 16.9559 34.4981 18.1933 34.4981 19.4544C31.9829 19.4544 29.4974 19.4544 26.9573 19.4544Z" fill="white"/>
<path d="M34.4945 11.8369C31.9793 11.8369 29.482 11.8369 26.962 11.8369C26.962 10.59 26.962 9.36449 26.962 8.10693C29.4677 8.10693 31.9638 8.10693 34.4945 8.10693C34.4945 9.34312 34.4945 10.5781 34.4945 11.8369Z" fill="white"/>
</g>
<defs>
<clipPath id="clip0_4_63">
<rect width="41.7963" height="41.7963" fill="white" transform="translate(0.344727 0.457031)"/>
</clipPath>
</defs>
</svg>
